<?xml version="1.0" encoding="us-ascii" standalone="no"?><svg xmlns="http://www.w3.org/2000/svg" xmlns:xlink="http://www.w3.org/1999/xlink" contentStyleType="text/css" height="625px" preserveAspectRatio="none" style="width:3612px;height:625px;background:#FFFFFF;" version="1.1" viewBox="0 0 3612 625" width="3612px" zoomAndPan="magnify"><defs/><g><!--cluster mypokemons--><g id="cluster_mypokemons"><path d="M414.5,238 L521.5,238 A3.75,3.75 0 0 1 524,240.5 L531,260.2969 L2099.5,260.2969 A2.5,2.5 0 0 1 2102,262.7969 L2102,350.5 A2.5,2.5 0 0 1 2099.5,353 L414.5,353 A2.5,2.5 0 0 1 412,350.5 L412,240.5 A2.5,2.5 0 0 1 414.5,238 " fill="none" style="stroke:#000000;stroke-width:1.5;"/><line style="stroke:#000000;stroke-width:1.5;" x1="412" x2="531" y1="260.2969" y2="260.2969"/><text fill="#000000" font-family="sans-serif" font-size="14" font-weight="bold" lengthAdjust="spacing" textLength="106" x="416" y="252.9951">mypokemons</text></g><!--cluster utils--><g id="cluster_utils"><path d="M2412.5,6 L2450.5,6 A3.75,3.75 0 0 1 2453,8.5 L2460,28.2969 L2737.5,28.2969 A2.5,2.5 0 0 1 2740,30.7969 L2740,118.5 A2.5,2.5 0 0 1 2737.5,121 L2412.5,121 A2.5,2.5 0 0 1 2410,118.5 L2410,8.5 A2.5,2.5 0 0 1 2412.5,6 " fill="none" style="stroke:#000000;stroke-width:1.5;"/><line style="stroke:#000000;stroke-width:1.5;" x1="2410" x2="2460" y1="28.2969" y2="28.2969"/><text fill="#000000" font-family="sans-serif" font-size="14" font-weight="bold" lengthAdjust="spacing" textLength="37" x="2414" y="20.9951">utils</text></g><!--cluster mymoves--><g id="cluster_mymoves"><path d="M8.5,470 L85.5,470 A3.75,3.75 0 0 1 88,472.5 L95,492.2969 L3602.5,492.2969 A2.5,2.5 0 0 1 3605,494.7969 L3605,615.5 A2.5,2.5 0 0 1 3602.5,618 L8.5,618 A2.5,2.5 0 0 1 6,615.5 L6,472.5 A2.5,2.5 0 0 1 8.5,470 " fill="none" style="stroke:#000000;stroke-width:1.5;"/><line style="stroke:#000000;stroke-width:1.5;" x1="6" x2="95" y1="492.2969" y2="492.2969"/><text fill="#000000" font-family="sans-serif" font-size="14" font-weight="bold" lengthAdjust="spacing" textLength="76" x="10" y="484.9951">mymoves</text></g><!--class Sealeo--><g id="elem_Sealeo"><rect codeLine="37" fill="#F1F1F1" height="64.2969" id="Sealeo" rx="2.5" ry="2.5" style="stroke:#181818;stroke-width:0.5;" width="238" x="1848" y="273"/><ellipse cx="1938.75" cy="289" fill="#ADD1B2" rx="11" ry="11" style="stroke:#181818;stroke-width:1.0;"/><path d="M1941.0938,284.6719 C1940.1563,284.2344 1939.5625,284.0938 1938.6875,284.0938 C1936.0625,284.0938 1934.0625,286.1719 1934.0625,288.8906 L1934.0625,290.0156 C1934.0625,292.5938 1936.1719,294.4844 1939.0625,294.4844 C1940.2813,294.4844 1941.4375,294.1875 1942.1875,293.6406 C1942.7656,293.2344 1943.0938,292.7813 1943.0938,292.3906 C1943.0938,291.9375 1942.7031,291.5469 1942.2344,291.5469 C1942.0156,291.5469 1941.8125,291.625 1941.625,291.8125 C1941.1719,292.2969 1941.1719,292.2969 1940.9844,292.3906 C1940.5625,292.6563 1939.875,292.7813 1939.1094,292.7813 C1937.0625,292.7813 1935.7656,291.6875 1935.7656,289.9844 L1935.7656,288.8906 C1935.7656,287.1094 1937.0156,285.7969 1938.75,285.7969 C1939.3281,285.7969 1939.9375,285.9531 1940.4063,286.2031 C1940.8906,286.4844 1941.0625,286.7031 1941.1563,287.1094 C1941.2188,287.5156 1941.25,287.6406 1941.3906,287.7656 C1941.5313,287.9063 1941.7656,288.0156 1941.9844,288.0156 C1942.25,288.0156 1942.5156,287.875 1942.6875,287.6563 C1942.7969,287.5 1942.8281,287.3125 1942.8281,286.8906 L1942.8281,285.4688 C1942.8281,285.0313 1942.8125,284.9063 1942.7188,284.75 C1942.5625,284.4844 1942.2813,284.3438 1941.9844,284.3438 C1941.6875,284.3438 1941.4844,284.4375 1941.2656,284.75 L1941.0938,284.6719 Z " fill="#000000"/><text fill="#000000" font-family="sans-serif" font-size="14" lengthAdjust="spacing" textLength="48" x="1959.25" y="293.8467">Sealeo</text><line style="stroke:#181818;stroke-width:0.5;" x1="1849" x2="2085" y1="305" y2="305"/><line style="stroke:#181818;stroke-width:0.5;" x1="1849" x2="2085" y1="313" y2="313"/><ellipse cx="1859" cy="326.6484" fill="#84BE84" rx="3" ry="3" style="stroke:#038048;stroke-width:1.0;"/><text fill="#000000" font-family="sans-serif" font-size="14" lengthAdjust="spacing" textLength="212" x="1868" y="329.9951">Sealeo(String name, int level)</text></g><!--class Skarmory--><g id="elem_Skarmory"><rect codeLine="45" fill="#F1F1F1" height="64.2969" id="Skarmory" rx="2.5" ry="2.5" style="stroke:#181818;stroke-width:0.5;" width="259" x="428.5" y="273"/><ellipse cx="519.25" cy="289" fill="#ADD1B2" rx="11" ry="11" style="stroke:#181818;stroke-width:1.0;"/><path d="M521.5938,284.6719 C520.6563,284.2344 520.0625,284.0938 519.1875,284.0938 C516.5625,284.0938 514.5625,286.1719 514.5625,288.8906 L514.5625,290.0156 C514.5625,292.5938 516.6719,294.4844 519.5625,294.4844 C520.7813,294.4844 521.9375,294.1875 522.6875,293.6406 C523.2656,293.2344 523.5938,292.7813 523.5938,292.3906 C523.5938,291.9375 523.2031,291.5469 522.7344,291.5469 C522.5156,291.5469 522.3125,291.625 522.125,291.8125 C521.6719,292.2969 521.6719,292.2969 521.4844,292.3906 C521.0625,292.6563 520.375,292.7813 519.6094,292.7813 C517.5625,292.7813 516.2656,291.6875 516.2656,289.9844 L516.2656,288.8906 C516.2656,287.1094 517.5156,285.7969 519.25,285.7969 C519.8281,285.7969 520.4375,285.9531 520.9063,286.2031 C521.3906,286.4844 521.5625,286.7031 521.6563,287.1094 C521.7188,287.5156 521.75,287.6406 521.8906,287.7656 C522.0313,287.9063 522.2656,288.0156 522.4844,288.0156 C522.75,288.0156 523.0156,287.875 523.1875,287.6563 C523.2969,287.5 523.3281,287.3125 523.3281,286.8906 L523.3281,285.4688 C523.3281,285.0313 523.3125,284.9063 523.2188,284.75 C523.0625,284.4844 522.7813,284.3438 522.4844,284.3438 C522.1875,284.3438 521.9844,284.4375 521.7656,284.75 L521.5938,284.6719 Z " fill="#000000"/><text fill="#000000" font-family="sans-serif" font-size="14" lengthAdjust="spacing" textLength="69" x="539.75" y="293.8467">Skarmory</text><line style="stroke:#181818;stroke-width:0.5;" x1="429.5" x2="686.5" y1="305" y2="305"/><line style="stroke:#181818;stroke-width:0.5;" x1="429.5" x2="686.5" y1="313" y2="313"/><ellipse cx="439.5" cy="326.6484" fill="#84BE84" rx="3" ry="3" style="stroke:#038048;stroke-width:1.0;"/><text fill="#000000" font-family="sans-serif" font-size="14" lengthAdjust="spacing" textLength="233" x="448.5" y="329.9951">Skarmory(String name, int level)</text></g><!--class Houndour--><g id="elem_Houndour"><rect codeLine="23" fill="#F1F1F1" height="64.2969" id="Houndour" rx="2.5" ry="2.5" style="stroke:#181818;stroke-width:0.5;" width="258" x="723" y="273"/><ellipse cx="813.75" cy="289" fill="#ADD1B2" rx="11" ry="11" style="stroke:#181818;stroke-width:1.0;"/><path d="M816.0938,284.6719 C815.1563,284.2344 814.5625,284.0938 813.6875,284.0938 C811.0625,284.0938 809.0625,286.1719 809.0625,288.8906 L809.0625,290.0156 C809.0625,292.5938 811.1719,294.4844 814.0625,294.4844 C815.2813,294.4844 816.4375,294.1875 817.1875,293.6406 C817.7656,293.2344 818.0938,292.7813 818.0938,292.3906 C818.0938,291.9375 817.7031,291.5469 817.2344,291.5469 C817.0156,291.5469 816.8125,291.625 816.625,291.8125 C816.1719,292.2969 816.1719,292.2969 815.9844,292.3906 C815.5625,292.6563 814.875,292.7813 814.1094,292.7813 C812.0625,292.7813 810.7656,291.6875 810.7656,289.9844 L810.7656,288.8906 C810.7656,287.1094 812.0156,285.7969 813.75,285.7969 C814.3281,285.7969 814.9375,285.9531 815.4063,286.2031 C815.8906,286.4844 816.0625,286.7031 816.1563,287.1094 C816.2188,287.5156 816.25,287.6406 816.3906,287.7656 C816.5313,287.9063 816.7656,288.0156 816.9844,288.0156 C817.25,288.0156 817.5156,287.875 817.6875,287.6563 C817.7969,287.5 817.8281,287.3125 817.8281,286.8906 L817.8281,285.4688 C817.8281,285.0313 817.8125,284.9063 817.7188,284.75 C817.5625,284.4844 817.2813,284.3438 816.9844,284.3438 C816.6875,284.3438 816.4844,284.4375 816.2656,284.75 L816.0938,284.6719 Z " fill="#000000"/><text fill="#000000" font-family="sans-serif" font-size="14" lengthAdjust="spacing" textLength="68" x="834.25" y="293.8467">Houndour</text><line style="stroke:#181818;stroke-width:0.5;" x1="724" x2="980" y1="305" y2="305"/><line style="stroke:#181818;stroke-width:0.5;" x1="724" x2="980" y1="313" y2="313"/><ellipse cx="734" cy="326.6484" fill="#84BE84" rx="3" ry="3" style="stroke:#038048;stroke-width:1.0;"/><text fill="#000000" font-family="sans-serif" font-size="14" lengthAdjust="spacing" textLength="232" x="743" y="329.9951">Houndour(String name, int level)</text></g><!--class Oddish--><g id="elem_Oddish"><rect codeLine="31" fill="#F1F1F1" height="64.2969" id="Oddish" rx="2.5" ry="2.5" style="stroke:#181818;stroke-width:0.5;" width="239" x="1016.5" y="273"/><ellipse cx="1107.25" cy="289" fill="#ADD1B2" rx="11" ry="11" style="stroke:#181818;stroke-width:1.0;"/><path d="M1109.5938,284.6719 C1108.6563,284.2344 1108.0625,284.0938 1107.1875,284.0938 C1104.5625,284.0938 1102.5625,286.1719 1102.5625,288.8906 L1102.5625,290.0156 C1102.5625,292.5938 1104.6719,294.4844 1107.5625,294.4844 C1108.7813,294.4844 1109.9375,294.1875 1110.6875,293.6406 C1111.2656,293.2344 1111.5938,292.7813 1111.5938,292.3906 C1111.5938,291.9375 1111.2031,291.5469 1110.7344,291.5469 C1110.5156,291.5469 1110.3125,291.625 1110.125,291.8125 C1109.6719,292.2969 1109.6719,292.2969 1109.4844,292.3906 C1109.0625,292.6563 1108.375,292.7813 1107.6094,292.7813 C1105.5625,292.7813 1104.2656,291.6875 1104.2656,289.9844 L1104.2656,288.8906 C1104.2656,287.1094 1105.5156,285.7969 1107.25,285.7969 C1107.8281,285.7969 1108.4375,285.9531 1108.9063,286.2031 C1109.3906,286.4844 1109.5625,286.7031 1109.6563,287.1094 C1109.7188,287.5156 1109.75,287.6406 1109.8906,287.7656 C1110.0313,287.9063 1110.2656,288.0156 1110.4844,288.0156 C1110.75,288.0156 1111.0156,287.875 1111.1875,287.6563 C1111.2969,287.5 1111.3281,287.3125 1111.3281,286.8906 L1111.3281,285.4688 C1111.3281,285.0313 1111.3125,284.9063 1111.2188,284.75 C1111.0625,284.4844 1110.7813,284.3438 1110.4844,284.3438 C1110.1875,284.3438 1109.9844,284.4375 1109.7656,284.75 L1109.5938,284.6719 Z " fill="#000000"/><text fill="#000000" font-family="sans-serif" font-size="14" lengthAdjust="spacing" textLength="49" x="1127.75" y="293.8467">Oddish</text><line style="stroke:#181818;stroke-width:0.5;" x1="1017.5" x2="1254.5" y1="305" y2="305"/><line style="stroke:#181818;stroke-width:0.5;" x1="1017.5" x2="1254.5" y1="313" y2="313"/><ellipse cx="1027.5" cy="326.6484" fill="#84BE84" rx="3" ry="3" style="stroke:#038048;stroke-width:1.0;"/><text fill="#000000" font-family="sans-serif" font-size="14" lengthAdjust="spacing" textLength="213" x="1036.5" y="329.9951">Oddish(String name, int level)</text></g><!--class Gloom--><g id="elem_Gloom"><rect codeLine="16" fill="#F1F1F1" height="64.2969" id="Gloom" rx="2.5" ry="2.5" style="stroke:#181818;stroke-width:0.5;" width="237" x="1290.5" y="273"/><ellipse cx="1381.25" cy="289" fill="#ADD1B2" rx="11" ry="11" style="stroke:#181818;stroke-width:1.0;"/><path d="M1383.5938,284.6719 C1382.6563,284.2344 1382.0625,284.0938 1381.1875,284.0938 C1378.5625,284.0938 1376.5625,286.1719 1376.5625,288.8906 L1376.5625,290.0156 C1376.5625,292.5938 1378.6719,294.4844 1381.5625,294.4844 C1382.7813,294.4844 1383.9375,294.1875 1384.6875,293.6406 C1385.2656,293.2344 1385.5938,292.7813 1385.5938,292.3906 C1385.5938,291.9375 1385.2031,291.5469 1384.7344,291.5469 C1384.5156,291.5469 1384.3125,291.625 1384.125,291.8125 C1383.6719,292.2969 1383.6719,292.2969 1383.4844,292.3906 C1383.0625,292.6563 1382.375,292.7813 1381.6094,292.7813 C1379.5625,292.7813 1378.2656,291.6875 1378.2656,289.9844 L1378.2656,288.8906 C1378.2656,287.1094 1379.5156,285.7969 1381.25,285.7969 C1381.8281,285.7969 1382.4375,285.9531 1382.9063,286.2031 C1383.3906,286.4844 1383.5625,286.7031 1383.6563,287.1094 C1383.7188,287.5156 1383.75,287.6406 1383.8906,287.7656 C1384.0313,287.9063 1384.2656,288.0156 1384.4844,288.0156 C1384.75,288.0156 1385.0156,287.875 1385.1875,287.6563 C1385.2969,287.5 1385.3281,287.3125 1385.3281,286.8906 L1385.3281,285.4688 C1385.3281,285.0313 1385.3125,284.9063 1385.2188,284.75 C1385.0625,284.4844 1384.7813,284.3438 1384.4844,284.3438 C1384.1875,284.3438 1383.9844,284.4375 1383.7656,284.75 L1383.5938,284.6719 Z " fill="#000000"/><text fill="#000000" font-family="sans-serif" font-size="14" lengthAdjust="spacing" textLength="47" x="1401.75" y="293.8467">Gloom</text><line style="stroke:#181818;stroke-width:0.5;" x1="1291.5" x2="1526.5" y1="305" y2="305"/><line style="stroke:#181818;stroke-width:0.5;" x1="1291.5" x2="1526.5" y1="313" y2="313"/><ellipse cx="1301.5" cy="326.6484" fill="#84BE84" rx="3" ry="3" style="stroke:#038048;stroke-width:1.0;"/><text fill="#000000" font-family="sans-serif" font-size="14" lengthAdjust="spacing" textLength="211" x="1310.5" y="329.9951">Gloom(String name, int level)</text></g><!--class Totodile--><g id="elem_Totodile"><rect codeLine="52" fill="#F1F1F1" height="64.2969" id="Totodile" rx="2.5" ry="2.5" style="stroke:#181818;stroke-width:0.5;" width="250" x="1563" y="273"/><ellipse cx="1653.75" cy="289" fill="#ADD1B2" rx="11" ry="11" style="stroke:#181818;stroke-width:1.0;"/><path d="M1656.0938,284.6719 C1655.1563,284.2344 1654.5625,284.0938 1653.6875,284.0938 C1651.0625,284.0938 1649.0625,286.1719 1649.0625,288.8906 L1649.0625,290.0156 C1649.0625,292.5938 1651.1719,294.4844 1654.0625,294.4844 C1655.2813,294.4844 1656.4375,294.1875 1657.1875,293.6406 C1657.7656,293.2344 1658.0938,292.7813 1658.0938,292.3906 C1658.0938,291.9375 1657.7031,291.5469 1657.2344,291.5469 C1657.0156,291.5469 1656.8125,291.625 1656.625,291.8125 C1656.1719,292.2969 1656.1719,292.2969 1655.9844,292.3906 C1655.5625,292.6563 1654.875,292.7813 1654.1094,292.7813 C1652.0625,292.7813 1650.7656,291.6875 1650.7656,289.9844 L1650.7656,288.8906 C1650.7656,287.1094 1652.0156,285.7969 1653.75,285.7969 C1654.3281,285.7969 1654.9375,285.9531 1655.4063,286.2031 C1655.8906,286.4844 1656.0625,286.7031 1656.1563,287.1094 C1656.2188,287.5156 1656.25,287.6406 1656.3906,287.7656 C1656.5313,287.9063 1656.7656,288.0156 1656.9844,288.0156 C1657.25,288.0156 1657.5156,287.875 1657.6875,287.6563 C1657.7969,287.5 1657.8281,287.3125 1657.8281,286.8906 L1657.8281,285.4688 C1657.8281,285.0313 1657.8125,284.9063 1657.7188,284.75 C1657.5625,284.4844 1657.2813,284.3438 1656.9844,284.3438 C1656.6875,284.3438 1656.4844,284.4375 1656.2656,284.75 L1656.0938,284.6719 Z " fill="#000000"/><text fill="#000000" font-family="sans-serif" font-size="14" lengthAdjust="spacing" textLength="60" x="1674.25" y="293.8467">Totodile</text><line style="stroke:#181818;stroke-width:0.5;" x1="1564" x2="1812" y1="305" y2="305"/><line style="stroke:#181818;stroke-width:0.5;" x1="1564" x2="1812" y1="313" y2="313"/><ellipse cx="1574" cy="326.6484" fill="#84BE84" rx="3" ry="3" style="stroke:#038048;stroke-width:1.0;"/><text fill="#000000" font-family="sans-serif" font-size="14" lengthAdjust="spacing" textLength="224" x="1583" y="329.9951">Totodile(String name, int level)</text></g><!--class Utils--><g id="elem_Utils"><rect codeLine="11" fill="#F1F1F1" height="64.2969" id="Utils" rx="2.5" ry="2.5" style="stroke:#181818;stroke-width:0.5;" width="298" x="2426" y="41"/><ellipse cx="2555.25" cy="57" fill="#ADD1B2" rx="11" ry="11" style="stroke:#181818;stroke-width:1.0;"/><path d="M2557.5938,52.6719 C2556.6563,52.2344 2556.0625,52.0938 2555.1875,52.0938 C2552.5625,52.0938 2550.5625,54.1719 2550.5625,56.8906 L2550.5625,58.0156 C2550.5625,60.5938 2552.6719,62.4844 2555.5625,62.4844 C2556.7813,62.4844 2557.9375,62.1875 2558.6875,61.6406 C2559.2656,61.2344 2559.5938,60.7813 2559.5938,60.3906 C2559.5938,59.9375 2559.2031,59.5469 2558.7344,59.5469 C2558.5156,59.5469 2558.3125,59.625 2558.125,59.8125 C2557.6719,60.2969 2557.6719,60.2969 2557.4844,60.3906 C2557.0625,60.6563 2556.375,60.7813 2555.6094,60.7813 C2553.5625,60.7813 2552.2656,59.6875 2552.2656,57.9844 L2552.2656,56.8906 C2552.2656,55.1094 2553.5156,53.7969 2555.25,53.7969 C2555.8281,53.7969 2556.4375,53.9531 2556.9063,54.2031 C2557.3906,54.4844 2557.5625,54.7031 2557.6563,55.1094 C2557.7188,55.5156 2557.75,55.6406 2557.8906,55.7656 C2558.0313,55.9063 2558.2656,56.0156 2558.4844,56.0156 C2558.75,56.0156 2559.0156,55.875 2559.1875,55.6563 C2559.2969,55.5 2559.3281,55.3125 2559.3281,54.8906 L2559.3281,53.4688 C2559.3281,53.0313 2559.3125,52.9063 2559.2188,52.75 C2559.0625,52.4844 2558.7813,52.3438 2558.4844,52.3438 C2558.1875,52.3438 2557.9844,52.4375 2557.7656,52.75 L2557.5938,52.6719 Z " fill="#000000"/><text fill="#000000" font-family="sans-serif" font-size="14" lengthAdjust="spacing" textLength="31" x="2575.75" y="61.8467">Utils</text><line style="stroke:#181818;stroke-width:0.5;" x1="2427" x2="2723" y1="73" y2="73"/><line style="stroke:#181818;stroke-width:0.5;" x1="2427" x2="2723" y1="81" y2="81"/><ellipse cx="2437" cy="94.6484" fill="#84BE84" rx="3" ry="3" style="stroke:#038048;stroke-width:1.0;"/><text fill="#000000" font-family="sans-serif" font-size="14" lengthAdjust="spacing" textLength="272" x="2446" y="97.9951">static boolean chance(double chance)</text></g><!--class LightScreen--><g id="elem_LightScreen"><rect codeLine="94" fill="#F1F1F1" height="96.8906" id="LightScreen" rx="2.5" ry="2.5" style="stroke:#181818;stroke-width:0.5;" width="272" x="1406" y="505"/><ellipse cx="1494.25" cy="521" fill="#ADD1B2" rx="11" ry="11" style="stroke:#181818;stroke-width:1.0;"/><path d="M1496.5938,516.6719 C1495.6563,516.2344 1495.0625,516.0938 1494.1875,516.0938 C1491.5625,516.0938 1489.5625,518.1719 1489.5625,520.8906 L1489.5625,522.0156 C1489.5625,524.5938 1491.6719,526.4844 1494.5625,526.4844 C1495.7813,526.4844 1496.9375,526.1875 1497.6875,525.6406 C1498.2656,525.2344 1498.5938,524.7813 1498.5938,524.3906 C1498.5938,523.9375 1498.2031,523.5469 1497.7344,523.5469 C1497.5156,523.5469 1497.3125,523.625 1497.125,523.8125 C1496.6719,524.2969 1496.6719,524.2969 1496.4844,524.3906 C1496.0625,524.6563 1495.375,524.7813 1494.6094,524.7813 C1492.5625,524.7813 1491.2656,523.6875 1491.2656,521.9844 L1491.2656,520.8906 C1491.2656,519.1094 1492.5156,517.7969 1494.25,517.7969 C1494.8281,517.7969 1495.4375,517.9531 1495.9063,518.2031 C1496.3906,518.4844 1496.5625,518.7031 1496.6563,519.1094 C1496.7188,519.5156 1496.75,519.6406 1496.8906,519.7656 C1497.0313,519.9063 1497.2656,520.0156 1497.4844,520.0156 C1497.75,520.0156 1498.0156,519.875 1498.1875,519.6563 C1498.2969,519.5 1498.3281,519.3125 1498.3281,518.8906 L1498.3281,517.4688 C1498.3281,517.0313 1498.3125,516.9063 1498.2188,516.75 C1498.0625,516.4844 1497.7813,516.3438 1497.4844,516.3438 C1497.1875,516.3438 1496.9844,516.4375 1496.7656,516.75 L1496.5938,516.6719 Z " fill="#000000"/><text fill="#000000" font-family="sans-serif" font-size="14" lengthAdjust="spacing" textLength="87" x="1514.75" y="525.8467">LightScreen</text><line style="stroke:#181818;stroke-width:0.5;" x1="1407" x2="1677" y1="537" y2="537"/><line style="stroke:#181818;stroke-width:0.5;" x1="1407" x2="1677" y1="545" y2="545"/><ellipse cx="1417" cy="558.6484" fill="#84BE84" rx="3" ry="3" style="stroke:#038048;stroke-width:1.0;"/><text fill="#000000" font-family="sans-serif" font-size="14" lengthAdjust="spacing" textLength="97" x="1426" y="561.9951">LightScreen()</text><polygon fill="#FFFF44" points="1417,569.9453,1421,573.9453,1417,577.9453,1413,573.9453" style="stroke:#B38D22;stroke-width:1.0;"/><text fill="#000000" font-family="sans-serif" font-size="14" lengthAdjust="spacing" textLength="246" x="1426" y="578.292">void applySelfEffects(Pokemon p)</text><polygon fill="#FFFF44" points="1417,586.2422,1421,590.2422,1417,594.2422,1413,590.2422" style="stroke:#B38D22;stroke-width:1.0;"/><text fill="#000000" font-family="sans-serif" font-size="14" lengthAdjust="spacing" textLength="120" x="1426" y="594.5889">String describe()</text></g><!--class HydroPump--><g id="elem_HydroPump"><rect codeLine="88" fill="#F1F1F1" height="80.5938" id="HydroPump" rx="2.5" ry="2.5" style="stroke:#181818;stroke-width:0.5;" width="146" x="776" y="513"/><ellipse cx="804.95" cy="529" fill="#ADD1B2" rx="11" ry="11" style="stroke:#181818;stroke-width:1.0;"/><path d="M807.2938,524.6719 C806.3563,524.2344 805.7625,524.0938 804.8875,524.0938 C802.2625,524.0938 800.2625,526.1719 800.2625,528.8906 L800.2625,530.0156 C800.2625,532.5938 802.3719,534.4844 805.2625,534.4844 C806.4813,534.4844 807.6375,534.1875 808.3875,533.6406 C808.9656,533.2344 809.2938,532.7813 809.2938,532.3906 C809.2938,531.9375 808.9031,531.5469 808.4344,531.5469 C808.2156,531.5469 808.0125,531.625 807.825,531.8125 C807.3719,532.2969 807.3719,532.2969 807.1844,532.3906 C806.7625,532.6563 806.075,532.7813 805.3094,532.7813 C803.2625,532.7813 801.9656,531.6875 801.9656,529.9844 L801.9656,528.8906 C801.9656,527.1094 803.2156,525.7969 804.95,525.7969 C805.5281,525.7969 806.1375,525.9531 806.6063,526.2031 C807.0906,526.4844 807.2625,526.7031 807.3563,527.1094 C807.4188,527.5156 807.45,527.6406 807.5906,527.7656 C807.7313,527.9063 807.9656,528.0156 808.1844,528.0156 C808.45,528.0156 808.7156,527.875 808.8875,527.6563 C808.9969,527.5 809.0281,527.3125 809.0281,526.8906 L809.0281,525.4688 C809.0281,525.0313 809.0125,524.9063 808.9188,524.75 C808.7625,524.4844 808.4813,524.3438 808.1844,524.3438 C807.8875,524.3438 807.6844,524.4375 807.4656,524.75 L807.2938,524.6719 Z " fill="#000000"/><text fill="#000000" font-family="sans-serif" font-size="14" lengthAdjust="spacing" textLength="83" x="822.05" y="533.8467">HydroPump</text><line style="stroke:#181818;stroke-width:0.5;" x1="777" x2="921" y1="545" y2="545"/><line style="stroke:#181818;stroke-width:0.5;" x1="777" x2="921" y1="553" y2="553"/><ellipse cx="787" cy="566.6484" fill="#84BE84" rx="3" ry="3" style="stroke:#038048;stroke-width:1.0;"/><text fill="#000000" font-family="sans-serif" font-size="14" lengthAdjust="spacing" textLength="93" x="796" y="569.9951">HydroPump()</text><polygon fill="#FFFF44" points="787,577.9453,791,581.9453,787,585.9453,783,581.9453" style="stroke:#B38D22;stroke-width:1.0;"/><text fill="#000000" font-family="sans-serif" font-size="14" lengthAdjust="spacing" textLength="120" x="796" y="586.292">String describe()</text></g><!--class Charge--><g id="elem_Charge"><rect codeLine="67" fill="#F1F1F1" height="96.8906" id="Charge" rx="2.5" ry="2.5" style="stroke:#181818;stroke-width:0.5;" width="272" x="1713" y="505"/><ellipse cx="1819.25" cy="521" fill="#ADD1B2" rx="11" ry="11" style="stroke:#181818;stroke-width:1.0;"/><path d="M1821.5938,516.6719 C1820.6563,516.2344 1820.0625,516.0938 1819.1875,516.0938 C1816.5625,516.0938 1814.5625,518.1719 1814.5625,520.8906 L1814.5625,522.0156 C1814.5625,524.5938 1816.6719,526.4844 1819.5625,526.4844 C1820.7813,526.4844 1821.9375,526.1875 1822.6875,525.6406 C1823.2656,525.2344 1823.5938,524.7813 1823.5938,524.3906 C1823.5938,523.9375 1823.2031,523.5469 1822.7344,523.5469 C1822.5156,523.5469 1822.3125,523.625 1822.125,523.8125 C1821.6719,524.2969 1821.6719,524.2969 1821.4844,524.3906 C1821.0625,524.6563 1820.375,524.7813 1819.6094,524.7813 C1817.5625,524.7813 1816.2656,523.6875 1816.2656,521.9844 L1816.2656,520.8906 C1816.2656,519.1094 1817.5156,517.7969 1819.25,517.7969 C1819.8281,517.7969 1820.4375,517.9531 1820.9063,518.2031 C1821.3906,518.4844 1821.5625,518.7031 1821.6563,519.1094 C1821.7188,519.5156 1821.75,519.6406 1821.8906,519.7656 C1822.0313,519.9063 1822.2656,520.0156 1822.4844,520.0156 C1822.75,520.0156 1823.0156,519.875 1823.1875,519.6563 C1823.2969,519.5 1823.3281,519.3125 1823.3281,518.8906 L1823.3281,517.4688 C1823.3281,517.0313 1823.3125,516.9063 1823.2188,516.75 C1823.0625,516.4844 1822.7813,516.3438 1822.4844,516.3438 C1822.1875,516.3438 1821.9844,516.4375 1821.7656,516.75 L1821.5938,516.6719 Z " fill="#000000"/><text fill="#000000" font-family="sans-serif" font-size="14" lengthAdjust="spacing" textLength="51" x="1839.75" y="525.8467">Charge</text><line style="stroke:#181818;stroke-width:0.5;" x1="1714" x2="1984" y1="537" y2="537"/><line style="stroke:#181818;stroke-width:0.5;" x1="1714" x2="1984" y1="545" y2="545"/><ellipse cx="1724" cy="558.6484" fill="#84BE84" rx="3" ry="3" style="stroke:#038048;stroke-width:1.0;"/><text fill="#000000" font-family="sans-serif" font-size="14" lengthAdjust="spacing" textLength="61" x="1733" y="561.9951">Charge()</text><polygon fill="#FFFF44" points="1724,569.9453,1728,573.9453,1724,577.9453,1720,573.9453" style="stroke:#B38D22;stroke-width:1.0;"/><text fill="#000000" font-family="sans-serif" font-size="14" lengthAdjust="spacing" textLength="246" x="1733" y="578.292">void applySelfEffects(Pokemon p)</text><polygon fill="#FFFF44" points="1724,586.2422,1728,590.2422,1724,594.2422,1720,590.2422" style="stroke:#B38D22;stroke-width:1.0;"/><text fill="#000000" font-family="sans-serif" font-size="14" lengthAdjust="spacing" textLength="120" x="1733" y="594.5889">String describe()</text></g><!--class ThunderShock--><g id="elem_ThunderShock"><rect codeLine="122" fill="#F1F1F1" height="96.8906" id="ThunderShock" rx="2.5" ry="2.5" style="stroke:#181818;stroke-width:0.5;" width="275" x="22.5" y="505"/><ellipse cx="104.25" cy="521" fill="#ADD1B2" rx="11" ry="11" style="stroke:#181818;stroke-width:1.0;"/><path d="M106.5938,516.6719 C105.6563,516.2344 105.0625,516.0938 104.1875,516.0938 C101.5625,516.0938 99.5625,518.1719 99.5625,520.8906 L99.5625,522.0156 C99.5625,524.5938 101.6719,526.4844 104.5625,526.4844 C105.7813,526.4844 106.9375,526.1875 107.6875,525.6406 C108.2656,525.2344 108.5938,524.7813 108.5938,524.3906 C108.5938,523.9375 108.2031,523.5469 107.7344,523.5469 C107.5156,523.5469 107.3125,523.625 107.125,523.8125 C106.6719,524.2969 106.6719,524.2969 106.4844,524.3906 C106.0625,524.6563 105.375,524.7813 104.6094,524.7813 C102.5625,524.7813 101.2656,523.6875 101.2656,521.9844 L101.2656,520.8906 C101.2656,519.1094 102.5156,517.7969 104.25,517.7969 C104.8281,517.7969 105.4375,517.9531 105.9063,518.2031 C106.3906,518.4844 106.5625,518.7031 106.6563,519.1094 C106.7188,519.5156 106.75,519.6406 106.8906,519.7656 C107.0313,519.9063 107.2656,520.0156 107.4844,520.0156 C107.75,520.0156 108.0156,519.875 108.1875,519.6563 C108.2969,519.5 108.3281,519.3125 108.3281,518.8906 L108.3281,517.4688 C108.3281,517.0313 108.3125,516.9063 108.2188,516.75 C108.0625,516.4844 107.7813,516.3438 107.4844,516.3438 C107.1875,516.3438 106.9844,516.4375 106.7656,516.75 L106.5938,516.6719 Z " fill="#000000"/><text fill="#000000" font-family="sans-serif" font-size="14" lengthAdjust="spacing" textLength="103" x="124.75" y="525.8467">ThunderShock</text><line style="stroke:#181818;stroke-width:0.5;" x1="23.5" x2="296.5" y1="537" y2="537"/><line style="stroke:#181818;stroke-width:0.5;" x1="23.5" x2="296.5" y1="545" y2="545"/><ellipse cx="33.5" cy="558.6484" fill="#84BE84" rx="3" ry="3" style="stroke:#038048;stroke-width:1.0;"/><text fill="#000000" font-family="sans-serif" font-size="14" lengthAdjust="spacing" textLength="117" x="42.5" y="561.9951">ThunderShock ()</text><polygon fill="#FFFF44" points="33.5,569.9453,37.5,573.9453,33.5,577.9453,29.5,573.9453" style="stroke:#B38D22;stroke-width:1.0;"/><text fill="#000000" font-family="sans-serif" font-size="14" lengthAdjust="spacing" textLength="249" x="42.5" y="578.292">void applyOppEffects(Pokemon p)</text><polygon fill="#FFFF44" points="33.5,586.2422,37.5,590.2422,33.5,594.2422,29.5,590.2422" style="stroke:#B38D22;stroke-width:1.0;"/><text fill="#000000" font-family="sans-serif" font-size="14" lengthAdjust="spacing" textLength="124" x="42.5" y="594.5889">String describe ()</text></g><!--class Endeavor--><g id="elem_Endeavor"><rect codeLine="81" fill="#F1F1F1" height="96.8906" id="Endeavor" rx="2.5" ry="2.5" style="stroke:#181818;stroke-width:0.5;" width="408" x="333" y="505"/><ellipse cx="499.25" cy="521" fill="#ADD1B2" rx="11" ry="11" style="stroke:#181818;stroke-width:1.0;"/><path d="M501.5938,516.6719 C500.6563,516.2344 500.0625,516.0938 499.1875,516.0938 C496.5625,516.0938 494.5625,518.1719 494.5625,520.8906 L494.5625,522.0156 C494.5625,524.5938 496.6719,526.4844 499.5625,526.4844 C500.7813,526.4844 501.9375,526.1875 502.6875,525.6406 C503.2656,525.2344 503.5938,524.7813 503.5938,524.3906 C503.5938,523.9375 503.2031,523.5469 502.7344,523.5469 C502.5156,523.5469 502.3125,523.625 502.125,523.8125 C501.6719,524.2969 501.6719,524.2969 501.4844,524.3906 C501.0625,524.6563 500.375,524.7813 499.6094,524.7813 C497.5625,524.7813 496.2656,523.6875 496.2656,521.9844 L496.2656,520.8906 C496.2656,519.1094 497.5156,517.7969 499.25,517.7969 C499.8281,517.7969 500.4375,517.9531 500.9063,518.2031 C501.3906,518.4844 501.5625,518.7031 501.6563,519.1094 C501.7188,519.5156 501.75,519.6406 501.8906,519.7656 C502.0313,519.9063 502.2656,520.0156 502.4844,520.0156 C502.75,520.0156 503.0156,519.875 503.1875,519.6563 C503.2969,519.5 503.3281,519.3125 503.3281,518.8906 L503.3281,517.4688 C503.3281,517.0313 503.3125,516.9063 503.2188,516.75 C503.0625,516.4844 502.7813,516.3438 502.4844,516.3438 C502.1875,516.3438 501.9844,516.4375 501.7656,516.75 L501.5938,516.6719 Z " fill="#000000"/><text fill="#000000" font-family="sans-serif" font-size="14" lengthAdjust="spacing" textLength="67" x="519.75" y="525.8467">Endeavor</text><line style="stroke:#181818;stroke-width:0.5;" x1="334" x2="740" y1="537" y2="537"/><line style="stroke:#181818;stroke-width:0.5;" x1="334" x2="740" y1="545" y2="545"/><ellipse cx="344" cy="558.6484" fill="#84BE84" rx="3" ry="3" style="stroke:#038048;stroke-width:1.0;"/><text fill="#000000" font-family="sans-serif" font-size="14" lengthAdjust="spacing" textLength="77" x="353" y="561.9951">Endeavor()</text><polygon fill="#FFFF44" points="344,569.9453,348,573.9453,344,577.9453,340,573.9453" style="stroke:#B38D22;stroke-width:1.0;"/><text fill="#000000" font-family="sans-serif" font-size="14" lengthAdjust="spacing" textLength="382" x="353" y="578.292">double calcBaseDamage(Pokemon att, Pokemon def)</text><polygon fill="#FFFF44" points="344,586.2422,348,590.2422,344,594.2422,340,590.2422" style="stroke:#B38D22;stroke-width:1.0;"/><text fill="#000000" font-family="sans-serif" font-size="14" lengthAdjust="spacing" textLength="120" x="353" y="594.5889">String describe()</text></g><!--class Bite--><g id="elem_Bite"><rect codeLine="60" fill="#F1F1F1" height="96.8906" id="Bite" rx="2.5" ry="2.5" style="stroke:#181818;stroke-width:0.5;" width="414" x="957" y="505"/><ellipse cx="1144.75" cy="521" fill="#ADD1B2" rx="11" ry="11" style="stroke:#181818;stroke-width:1.0;"/><path d="M1147.0938,516.6719 C1146.1563,516.2344 1145.5625,516.0938 1144.6875,516.0938 C1142.0625,516.0938 1140.0625,518.1719 1140.0625,520.8906 L1140.0625,522.0156 C1140.0625,524.5938 1142.1719,526.4844 1145.0625,526.4844 C1146.2813,526.4844 1147.4375,526.1875 1148.1875,525.6406 C1148.7656,525.2344 1149.0938,524.7813 1149.0938,524.3906 C1149.0938,523.9375 1148.7031,523.5469 1148.2344,523.5469 C1148.0156,523.5469 1147.8125,523.625 1147.625,523.8125 C1147.1719,524.2969 1147.1719,524.2969 1146.9844,524.3906 C1146.5625,524.6563 1145.875,524.7813 1145.1094,524.7813 C1143.0625,524.7813 1141.7656,523.6875 1141.7656,521.9844 L1141.7656,520.8906 C1141.7656,519.1094 1143.0156,517.7969 1144.75,517.7969 C1145.3281,517.7969 1145.9375,517.9531 1146.4063,518.2031 C1146.8906,518.4844 1147.0625,518.7031 1147.1563,519.1094 C1147.2188,519.5156 1147.25,519.6406 1147.3906,519.7656 C1147.5313,519.9063 1147.7656,520.0156 1147.9844,520.0156 C1148.25,520.0156 1148.5156,519.875 1148.6875,519.6563 C1148.7969,519.5 1148.8281,519.3125 1148.8281,518.8906 L1148.8281,517.4688 C1148.8281,517.0313 1148.8125,516.9063 1148.7188,516.75 C1148.5625,516.4844 1148.2813,516.3438 1147.9844,516.3438 C1147.6875,516.3438 1147.4844,516.4375 1147.2656,516.75 L1147.0938,516.6719 Z " fill="#000000"/><text fill="#000000" font-family="sans-serif" font-size="14" lengthAdjust="spacing" textLength="30" x="1165.25" y="525.8467">Bite</text><line style="stroke:#181818;stroke-width:0.5;" x1="958" x2="1370" y1="537" y2="537"/><line style="stroke:#181818;stroke-width:0.5;" x1="958" x2="1370" y1="545" y2="545"/><ellipse cx="968" cy="558.6484" fill="#84BE84" rx="3" ry="3" style="stroke:#038048;stroke-width:1.0;"/><text fill="#000000" font-family="sans-serif" font-size="14" lengthAdjust="spacing" textLength="40" x="977" y="561.9951">Bite()</text><polygon fill="#FFFF44" points="968,569.9453,972,573.9453,968,577.9453,964,573.9453" style="stroke:#B38D22;stroke-width:1.0;"/><text fill="#000000" font-family="sans-serif" font-size="14" lengthAdjust="spacing" textLength="388" x="977" y="578.292">void applyOppDamage(Pokemon def, double damage)</text><polygon fill="#FFFF44" points="968,586.2422,972,590.2422,968,594.2422,964,590.2422" style="stroke:#B38D22;stroke-width:1.0;"/><text fill="#000000" font-family="sans-serif" font-size="14" lengthAdjust="spacing" textLength="120" x="977" y="594.5889">String describe()</text></g><!--class DoubleEdge--><g id="elem_DoubleEdge"><rect codeLine="74" fill="#F1F1F1" height="96.8906" id="DoubleEdge" rx="2.5" ry="2.5" style="stroke:#181818;stroke-width:0.5;" width="397" x="3191.5" y="505"/><ellipse cx="3342.25" cy="521" fill="#ADD1B2" rx="11" ry="11" style="stroke:#181818;stroke-width:1.0;"/><path d="M3344.5938,516.6719 C3343.6563,516.2344 3343.0625,516.0938 3342.1875,516.0938 C3339.5625,516.0938 3337.5625,518.1719 3337.5625,520.8906 L3337.5625,522.0156 C3337.5625,524.5938 3339.6719,526.4844 3342.5625,526.4844 C3343.7813,526.4844 3344.9375,526.1875 3345.6875,525.6406 C3346.2656,525.2344 3346.5938,524.7813 3346.5938,524.3906 C3346.5938,523.9375 3346.2031,523.5469 3345.7344,523.5469 C3345.5156,523.5469 3345.3125,523.625 3345.125,523.8125 C3344.6719,524.2969 3344.6719,524.2969 3344.4844,524.3906 C3344.0625,524.6563 3343.375,524.7813 3342.6094,524.7813 C3340.5625,524.7813 3339.2656,523.6875 3339.2656,521.9844 L3339.2656,520.8906 C3339.2656,519.1094 3340.5156,517.7969 3342.25,517.7969 C3342.8281,517.7969 3343.4375,517.9531 3343.9063,518.2031 C3344.3906,518.4844 3344.5625,518.7031 3344.6563,519.1094 C3344.7188,519.5156 3344.75,519.6406 3344.8906,519.7656 C3345.0313,519.9063 3345.2656,520.0156 3345.4844,520.0156 C3345.75,520.0156 3346.0156,519.875 3346.1875,519.6563 C3346.2969,519.5 3346.3281,519.3125 3346.3281,518.8906 L3346.3281,517.4688 C3346.3281,517.0313 3346.3125,516.9063 3346.2188,516.75 C3346.0625,516.4844 3345.7813,516.3438 3345.4844,516.3438 C3345.1875,516.3438 3344.9844,516.4375 3344.7656,516.75 L3344.5938,516.6719 Z " fill="#000000"/><text fill="#000000" font-family="sans-serif" font-size="14" lengthAdjust="spacing" textLength="87" x="3362.75" y="525.8467">DoubleEdge</text><line style="stroke:#181818;stroke-width:0.5;" x1="3192.5" x2="3587.5" y1="537" y2="537"/><line style="stroke:#181818;stroke-width:0.5;" x1="3192.5" x2="3587.5" y1="545" y2="545"/><ellipse cx="3202.5" cy="558.6484" fill="#84BE84" rx="3" ry="3" style="stroke:#038048;stroke-width:1.0;"/><text fill="#000000" font-family="sans-serif" font-size="14" lengthAdjust="spacing" textLength="97" x="3211.5" y="561.9951">DoubleEdge()</text><polygon fill="#FFFF44" points="3202.5,569.9453,3206.5,573.9453,3202.5,577.9453,3198.5,573.9453" style="stroke:#B38D22;stroke-width:1.0;"/><text fill="#000000" font-family="sans-serif" font-size="14" lengthAdjust="spacing" textLength="371" x="3211.5" y="578.292">void applySelfDamage(Pokemon p, double damage)</text><polygon fill="#FFFF44" points="3202.5,586.2422,3206.5,590.2422,3202.5,594.2422,3198.5,590.2422" style="stroke:#B38D22;stroke-width:1.0;"/><text fill="#000000" font-family="sans-serif" font-size="14" lengthAdjust="spacing" textLength="120" x="3211.5" y="594.5889">String describe()</text></g><!--class Substitute--><g id="elem_Substitute"><rect codeLine="108" fill="#F1F1F1" height="96.8906" id="Substitute" rx="2.5" ry="2.5" style="stroke:#181818;stroke-width:0.5;" width="397" x="2327.5" y="505"/><ellipse cx="2483.75" cy="521" fill="#ADD1B2" rx="11" ry="11" style="stroke:#181818;stroke-width:1.0;"/><path d="M2486.0938,516.6719 C2485.1563,516.2344 2484.5625,516.0938 2483.6875,516.0938 C2481.0625,516.0938 2479.0625,518.1719 2479.0625,520.8906 L2479.0625,522.0156 C2479.0625,524.5938 2481.1719,526.4844 2484.0625,526.4844 C2485.2813,526.4844 2486.4375,526.1875 2487.1875,525.6406 C2487.7656,525.2344 2488.0938,524.7813 2488.0938,524.3906 C2488.0938,523.9375 2487.7031,523.5469 2487.2344,523.5469 C2487.0156,523.5469 2486.8125,523.625 2486.625,523.8125 C2486.1719,524.2969 2486.1719,524.2969 2485.9844,524.3906 C2485.5625,524.6563 2484.875,524.7813 2484.1094,524.7813 C2482.0625,524.7813 2480.7656,523.6875 2480.7656,521.9844 L2480.7656,520.8906 C2480.7656,519.1094 2482.0156,517.7969 2483.75,517.7969 C2484.3281,517.7969 2484.9375,517.9531 2485.4063,518.2031 C2485.8906,518.4844 2486.0625,518.7031 2486.1563,519.1094 C2486.2188,519.5156 2486.25,519.6406 2486.3906,519.7656 C2486.5313,519.9063 2486.7656,520.0156 2486.9844,520.0156 C2487.25,520.0156 2487.5156,519.875 2487.6875,519.6563 C2487.7969,519.5 2487.8281,519.3125 2487.8281,518.8906 L2487.8281,517.4688 C2487.8281,517.0313 2487.8125,516.9063 2487.7188,516.75 C2487.5625,516.4844 2487.2813,516.3438 2486.9844,516.3438 C2486.6875,516.3438 2486.4844,516.4375 2486.2656,516.75 L2486.0938,516.6719 Z " fill="#000000"/><text fill="#000000" font-family="sans-serif" font-size="14" lengthAdjust="spacing" textLength="76" x="2504.25" y="525.8467">Substitute</text><line style="stroke:#181818;stroke-width:0.5;" x1="2328.5" x2="2723.5" y1="537" y2="537"/><line style="stroke:#181818;stroke-width:0.5;" x1="2328.5" x2="2723.5" y1="545" y2="545"/><ellipse cx="2338.5" cy="558.6484" fill="#84BE84" rx="3" ry="3" style="stroke:#038048;stroke-width:1.0;"/><text fill="#000000" font-family="sans-serif" font-size="14" lengthAdjust="spacing" textLength="86" x="2347.5" y="561.9951">Substitute()</text><polygon fill="#FFFF44" points="2338.5,569.9453,2342.5,573.9453,2338.5,577.9453,2334.5,573.9453" style="stroke:#B38D22;stroke-width:1.0;"/><text fill="#000000" font-family="sans-serif" font-size="14" lengthAdjust="spacing" textLength="371" x="2347.5" y="578.292">void applySelfDamage(Pokemon p, double damage)</text><polygon fill="#FFFF44" points="2338.5,586.2422,2342.5,590.2422,2338.5,594.2422,2334.5,590.2422" style="stroke:#B38D22;stroke-width:1.0;"/><text fill="#000000" font-family="sans-serif" font-size="14" lengthAdjust="spacing" textLength="120" x="2347.5" y="594.5889">String describe()</text></g><!--class TakeDown--><g id="elem_TakeDown"><rect codeLine="115" fill="#F1F1F1" height="96.8906" id="TakeDown" rx="2.5" ry="2.5" style="stroke:#181818;stroke-width:0.5;" width="397" x="2759.5" y="505"/><ellipse cx="2916.25" cy="521" fill="#ADD1B2" rx="11" ry="11" style="stroke:#181818;stroke-width:1.0;"/><path d="M2918.5938,516.6719 C2917.6563,516.2344 2917.0625,516.0938 2916.1875,516.0938 C2913.5625,516.0938 2911.5625,518.1719 2911.5625,520.8906 L2911.5625,522.0156 C2911.5625,524.5938 2913.6719,526.4844 2916.5625,526.4844 C2917.7813,526.4844 2918.9375,526.1875 2919.6875,525.6406 C2920.2656,525.2344 2920.5938,524.7813 2920.5938,524.3906 C2920.5938,523.9375 2920.2031,523.5469 2919.7344,523.5469 C2919.5156,523.5469 2919.3125,523.625 2919.125,523.8125 C2918.6719,524.2969 2918.6719,524.2969 2918.4844,524.3906 C2918.0625,524.6563 2917.375,524.7813 2916.6094,524.7813 C2914.5625,524.7813 2913.2656,523.6875 2913.2656,521.9844 L2913.2656,520.8906 C2913.2656,519.1094 2914.5156,517.7969 2916.25,517.7969 C2916.8281,517.7969 2917.4375,517.9531 2917.9063,518.2031 C2918.3906,518.4844 2918.5625,518.7031 2918.6563,519.1094 C2918.7188,519.5156 2918.75,519.6406 2918.8906,519.7656 C2919.0313,519.9063 2919.2656,520.0156 2919.4844,520.0156 C2919.75,520.0156 2920.0156,519.875 2920.1875,519.6563 C2920.2969,519.5 2920.3281,519.3125 2920.3281,518.8906 L2920.3281,517.4688 C2920.3281,517.0313 2920.3125,516.9063 2920.2188,516.75 C2920.0625,516.4844 2919.7813,516.3438 2919.4844,516.3438 C2919.1875,516.3438 2918.9844,516.4375 2918.7656,516.75 L2918.5938,516.6719 Z " fill="#000000"/><text fill="#000000" font-family="sans-serif" font-size="14" lengthAdjust="spacing" textLength="75" x="2936.75" y="525.8467">TakeDown</text><line style="stroke:#181818;stroke-width:0.5;" x1="2760.5" x2="3155.5" y1="537" y2="537"/><line style="stroke:#181818;stroke-width:0.5;" x1="2760.5" x2="3155.5" y1="545" y2="545"/><ellipse cx="2770.5" cy="558.6484" fill="#84BE84" rx="3" ry="3" style="stroke:#038048;stroke-width:1.0;"/><text fill="#000000" font-family="sans-serif" font-size="14" lengthAdjust="spacing" textLength="85" x="2779.5" y="561.9951">TakeDown()</text><polygon fill="#FFFF44" points="2770.5,569.9453,2774.5,573.9453,2770.5,577.9453,2766.5,573.9453" style="stroke:#B38D22;stroke-width:1.0;"/><text fill="#000000" font-family="sans-serif" font-size="14" lengthAdjust="spacing" textLength="371" x="2779.5" y="578.292">void applySelfDamage(Pokemon p, double damage)</text><polygon fill="#FFFF44" points="2770.5,586.2422,2774.5,590.2422,2770.5,594.2422,2766.5,590.2422" style="stroke:#B38D22;stroke-width:1.0;"/><text fill="#000000" font-family="sans-serif" font-size="14" lengthAdjust="spacing" textLength="120" x="2779.5" y="594.5889">String describe()</text></g><!--class Meditate--><g id="elem_Meditate"><rect codeLine="101" fill="#F1F1F1" height="96.8906" id="Meditate" rx="2.5" ry="2.5" style="stroke:#181818;stroke-width:0.5;" width="272" x="2020" y="505"/><ellipse cx="2119.25" cy="521" fill="#ADD1B2" rx="11" ry="11" style="stroke:#181818;stroke-width:1.0;"/><path d="M2121.5938,516.6719 C2120.6563,516.2344 2120.0625,516.0938 2119.1875,516.0938 C2116.5625,516.0938 2114.5625,518.1719 2114.5625,520.8906 L2114.5625,522.0156 C2114.5625,524.5938 2116.6719,526.4844 2119.5625,526.4844 C2120.7813,526.4844 2121.9375,526.1875 2122.6875,525.6406 C2123.2656,525.2344 2123.5938,524.7813 2123.5938,524.3906 C2123.5938,523.9375 2123.2031,523.5469 2122.7344,523.5469 C2122.5156,523.5469 2122.3125,523.625 2122.125,523.8125 C2121.6719,524.2969 2121.6719,524.2969 2121.4844,524.3906 C2121.0625,524.6563 2120.375,524.7813 2119.6094,524.7813 C2117.5625,524.7813 2116.2656,523.6875 2116.2656,521.9844 L2116.2656,520.8906 C2116.2656,519.1094 2117.5156,517.7969 2119.25,517.7969 C2119.8281,517.7969 2120.4375,517.9531 2120.9063,518.2031 C2121.3906,518.4844 2121.5625,518.7031 2121.6563,519.1094 C2121.7188,519.5156 2121.75,519.6406 2121.8906,519.7656 C2122.0313,519.9063 2122.2656,520.0156 2122.4844,520.0156 C2122.75,520.0156 2123.0156,519.875 2123.1875,519.6563 C2123.2969,519.5 2123.3281,519.3125 2123.3281,518.8906 L2123.3281,517.4688 C2123.3281,517.0313 2123.3125,516.9063 2123.2188,516.75 C2123.0625,516.4844 2122.7813,516.3438 2122.4844,516.3438 C2122.1875,516.3438 2121.9844,516.4375 2121.7656,516.75 L2121.5938,516.6719 Z " fill="#000000"/><text fill="#000000" font-family="sans-serif" font-size="14" lengthAdjust="spacing" textLength="65" x="2139.75" y="525.8467">Meditate</text><line style="stroke:#181818;stroke-width:0.5;" x1="2021" x2="2291" y1="537" y2="537"/><line style="stroke:#181818;stroke-width:0.5;" x1="2021" x2="2291" y1="545" y2="545"/><ellipse cx="2031" cy="558.6484" fill="#84BE84" rx="3" ry="3" style="stroke:#038048;stroke-width:1.0;"/><text fill="#000000" font-family="sans-serif" font-size="14" lengthAdjust="spacing" textLength="75" x="2040" y="561.9951">Meditate()</text><polygon fill="#FFFF44" points="2031,569.9453,2035,573.9453,2031,577.9453,2027,573.9453" style="stroke:#B38D22;stroke-width:1.0;"/><text fill="#000000" font-family="sans-serif" font-size="14" lengthAdjust="spacing" textLength="246" x="2040" y="578.292">void applySelfEffects(Pokemon p)</text><polygon fill="#FFFF44" points="2031,586.2422,2035,590.2422,2031,594.2422,2027,590.2422" style="stroke:#B38D22;stroke-width:1.0;"/><text fill="#000000" font-family="sans-serif" font-size="14" lengthAdjust="spacing" textLength="120" x="2040" y="594.5889">String describe()</text></g><!--class Main--><g id="elem_Main"><rect codeLine="1" fill="#F1F1F1" height="64.2969" id="Main" rx="2.5" ry="2.5" style="stroke:#181818;stroke-width:0.5;" width="238" x="1153" y="41"/><ellipse cx="1251.25" cy="57" fill="#ADD1B2" rx="11" ry="11" style="stroke:#181818;stroke-width:1.0;"/><path d="M1253.5938,52.6719 C1252.6563,52.2344 1252.0625,52.0938 1251.1875,52.0938 C1248.5625,52.0938 1246.5625,54.1719 1246.5625,56.8906 L1246.5625,58.0156 C1246.5625,60.5938 1248.6719,62.4844 1251.5625,62.4844 C1252.7813,62.4844 1253.9375,62.1875 1254.6875,61.6406 C1255.2656,61.2344 1255.5938,60.7813 1255.5938,60.3906 C1255.5938,59.9375 1255.2031,59.5469 1254.7344,59.5469 C1254.5156,59.5469 1254.3125,59.625 1254.125,59.8125 C1253.6719,60.2969 1253.6719,60.2969 1253.4844,60.3906 C1253.0625,60.6563 1252.375,60.7813 1251.6094,60.7813 C1249.5625,60.7813 1248.2656,59.6875 1248.2656,57.9844 L1248.2656,56.8906 C1248.2656,55.1094 1249.5156,53.7969 1251.25,53.7969 C1251.8281,53.7969 1252.4375,53.9531 1252.9063,54.2031 C1253.3906,54.4844 1253.5625,54.7031 1253.6563,55.1094 C1253.7188,55.5156 1253.75,55.6406 1253.8906,55.7656 C1254.0313,55.9063 1254.2656,56.0156 1254.4844,56.0156 C1254.75,56.0156 1255.0156,55.875 1255.1875,55.6563 C1255.2969,55.5 1255.3281,55.3125 1255.3281,54.8906 L1255.3281,53.4688 C1255.3281,53.0313 1255.3125,52.9063 1255.2188,52.75 C1255.0625,52.4844 1254.7813,52.3438 1254.4844,52.3438 C1254.1875,52.3438 1253.9844,52.4375 1253.7656,52.75 L1253.5938,52.6719 Z " fill="#000000"/><text fill="#000000" font-family="sans-serif" font-size="14" lengthAdjust="spacing" textLength="33" x="1271.75" y="61.8467">Main</text><line style="stroke:#181818;stroke-width:0.5;" x1="1154" x2="1390" y1="73" y2="73"/><line style="stroke:#181818;stroke-width:0.5;" x1="1154" x2="1390" y1="81" y2="81"/><ellipse cx="1164" cy="94.6484" fill="#84BE84" rx="3" ry="3" style="stroke:#038048;stroke-width:1.0;"/><text fill="#000000" font-family="sans-serif" font-size="14" lengthAdjust="spacing" textLength="212" x="1173" y="97.9951">static void main(String[] args)</text></g><!--class Pokemon--><g id="elem_Pokemon"><rect fill="#F1F1F1" height="48" id="Pokemon" rx="2.5" ry="2.5" style="stroke:#181818;stroke-width:0.5;" width="100" x="1230" y="165"/><ellipse cx="1245" cy="181" fill="#ADD1B2" rx="11" ry="11" style="stroke:#181818;stroke-width:1.0;"/><path d="M1247.3438,176.6719 C1246.4063,176.2344 1245.8125,176.0938 1244.9375,176.0938 C1242.3125,176.0938 1240.3125,178.1719 1240.3125,180.8906 L1240.3125,182.0156 C1240.3125,184.5938 1242.4219,186.4844 1245.3125,186.4844 C1246.5313,186.4844 1247.6875,186.1875 1248.4375,185.6406 C1249.0156,185.2344 1249.3438,184.7813 1249.3438,184.3906 C1249.3438,183.9375 1248.9531,183.5469 1248.4844,183.5469 C1248.2656,183.5469 1248.0625,183.625 1247.875,183.8125 C1247.4219,184.2969 1247.4219,184.2969 1247.2344,184.3906 C1246.8125,184.6563 1246.125,184.7813 1245.3594,184.7813 C1243.3125,184.7813 1242.0156,183.6875 1242.0156,181.9844 L1242.0156,180.8906 C1242.0156,179.1094 1243.2656,177.7969 1245,177.7969 C1245.5781,177.7969 1246.1875,177.9531 1246.6563,178.2031 C1247.1406,178.4844 1247.3125,178.7031 1247.4063,179.1094 C1247.4688,179.5156 1247.5,179.6406 1247.6406,179.7656 C1247.7813,179.9063 1248.0156,180.0156 1248.2344,180.0156 C1248.5,180.0156 1248.7656,179.875 1248.9375,179.6563 C1249.0469,179.5 1249.0781,179.3125 1249.0781,178.8906 L1249.0781,177.4688 C1249.0781,177.0313 1249.0625,176.9063 1248.9688,176.75 C1248.8125,176.4844 1248.5313,176.3438 1248.2344,176.3438 C1247.9375,176.3438 1247.7344,176.4375 1247.5156,176.75 L1247.3438,176.6719 Z " fill="#000000"/><text fill="#000000" font-family="sans-serif" font-size="14" lengthAdjust="spacing" textLength="68" x="1259" y="185.8467">Pokemon</text><line style="stroke:#181818;stroke-width:0.5;" x1="1231" x2="1329" y1="197" y2="197"/><line style="stroke:#181818;stroke-width:0.5;" x1="1231" x2="1329" y1="205" y2="205"/></g><!--class PhysicalMove--><g id="elem_PhysicalMove"><rect fill="#F1F1F1" height="48" id="PhysicalMove" rx="2.5" ry="2.5" style="stroke:#181818;stroke-width:0.5;" width="127" x="1785.5" y="397"/><ellipse cx="1800.5" cy="413" fill="#ADD1B2" rx="11" ry="11" style="stroke:#181818;stroke-width:1.0;"/><path d="M1802.8438,408.6719 C1801.9063,408.2344 1801.3125,408.0938 1800.4375,408.0938 C1797.8125,408.0938 1795.8125,410.1719 1795.8125,412.8906 L1795.8125,414.0156 C1795.8125,416.5938 1797.9219,418.4844 1800.8125,418.4844 C1802.0313,418.4844 1803.1875,418.1875 1803.9375,417.6406 C1804.5156,417.2344 1804.8438,416.7813 1804.8438,416.3906 C1804.8438,415.9375 1804.4531,415.5469 1803.9844,415.5469 C1803.7656,415.5469 1803.5625,415.625 1803.375,415.8125 C1802.9219,416.2969 1802.9219,416.2969 1802.7344,416.3906 C1802.3125,416.6563 1801.625,416.7813 1800.8594,416.7813 C1798.8125,416.7813 1797.5156,415.6875 1797.5156,413.9844 L1797.5156,412.8906 C1797.5156,411.1094 1798.7656,409.7969 1800.5,409.7969 C1801.0781,409.7969 1801.6875,409.9531 1802.1563,410.2031 C1802.6406,410.4844 1802.8125,410.7031 1802.9063,411.1094 C1802.9688,411.5156 1803,411.6406 1803.1406,411.7656 C1803.2813,411.9063 1803.5156,412.0156 1803.7344,412.0156 C1804,412.0156 1804.2656,411.875 1804.4375,411.6563 C1804.5469,411.5 1804.5781,411.3125 1804.5781,410.8906 L1804.5781,409.4688 C1804.5781,409.0313 1804.5625,408.9063 1804.4688,408.75 C1804.3125,408.4844 1804.0313,408.3438 1803.7344,408.3438 C1803.4375,408.3438 1803.2344,408.4375 1803.0156,408.75 L1802.8438,408.6719 Z " fill="#000000"/><text fill="#000000" font-family="sans-serif" font-size="14" lengthAdjust="spacing" textLength="95" x="1814.5" y="417.8467">PhysicalMove</text><line style="stroke:#181818;stroke-width:0.5;" x1="1786.5" x2="1911.5" y1="429" y2="429"/><line style="stroke:#181818;stroke-width:0.5;" x1="1786.5" x2="1911.5" y1="437" y2="437"/></g><!--class SpecialMove--><g id="elem_SpecialMove"><rect fill="#F1F1F1" height="48" id="SpecialMove" rx="2.5" ry="2.5" style="stroke:#181818;stroke-width:0.5;" width="122" x="99" y="397"/><ellipse cx="114" cy="413" fill="#ADD1B2" rx="11" ry="11" style="stroke:#181818;stroke-width:1.0;"/><path d="M116.3438,408.6719 C115.4063,408.2344 114.8125,408.0938 113.9375,408.0938 C111.3125,408.0938 109.3125,410.1719 109.3125,412.8906 L109.3125,414.0156 C109.3125,416.5938 111.4219,418.4844 114.3125,418.4844 C115.5313,418.4844 116.6875,418.1875 117.4375,417.6406 C118.0156,417.2344 118.3438,416.7813 118.3438,416.3906 C118.3438,415.9375 117.9531,415.5469 117.4844,415.5469 C117.2656,415.5469 117.0625,415.625 116.875,415.8125 C116.4219,416.2969 116.4219,416.2969 116.2344,416.3906 C115.8125,416.6563 115.125,416.7813 114.3594,416.7813 C112.3125,416.7813 111.0156,415.6875 111.0156,413.9844 L111.0156,412.8906 C111.0156,411.1094 112.2656,409.7969 114,409.7969 C114.5781,409.7969 115.1875,409.9531 115.6563,410.2031 C116.1406,410.4844 116.3125,410.7031 116.4063,411.1094 C116.4688,411.5156 116.5,411.6406 116.6406,411.7656 C116.7813,411.9063 117.0156,412.0156 117.2344,412.0156 C117.5,412.0156 117.7656,411.875 117.9375,411.6563 C118.0469,411.5 118.0781,411.3125 118.0781,410.8906 L118.0781,409.4688 C118.0781,409.0313 118.0625,408.9063 117.9688,408.75 C117.8125,408.4844 117.5313,408.3438 117.2344,408.3438 C116.9375,408.3438 116.7344,408.4375 116.5156,408.75 L116.3438,408.6719 Z " fill="#000000"/><text fill="#000000" font-family="sans-serif" font-size="14" lengthAdjust="spacing" textLength="90" x="128" y="417.8467">SpecialMove</text><line style="stroke:#181818;stroke-width:0.5;" x1="100" x2="220" y1="429" y2="429"/><line style="stroke:#181818;stroke-width:0.5;" x1="100" x2="220" y1="437" y2="437"/></g><!--link Main to Sealeo--><g id="link_Main_Sealeo"><path codeLine="4" d="M1391.27,99.028 C1506.24,125.063 1683.94,170.368 1831,230 C1860.27,241.868 1880.9271,252.432 1905.9571,266.88 " fill="none" id="Main-to-Sealeo" style="stroke:#AAAAAA;stroke-width:1.0;"/><polygon fill="none" points="1916.35,272.879,1913.1533,266.4152,1905.9571,266.88,1909.1539,273.3438,1916.35,272.879" style="stroke:#AAAAAA;stroke-width:1.0;"/></g><!--link Main to Skarmory--><g id="link_Main_Skarmory"><path codeLine="5" d="M1152.8,99.542 C1036.53,126.14 855.663,172.009 705,230 C673.802,242.008 651.0148,252.8698 623.9568,267.2358 " fill="none" id="Main-to-Skarmory" style="stroke:#AAAAAA;stroke-width:1.0;"/><polygon fill="none" points="613.358,272.863,620.5331,273.5823,623.9568,267.2358,616.7816,266.5165,613.358,272.863" style="stroke:#AAAAAA;stroke-width:1.0;"/></g><!--link Main to Houndour--><g id="link_Main_Houndour"><path codeLine="6" d="M1215.36,105.019 C1135.09,148.977 999.6062,223.1682 919.2762,267.1582 " fill="none" id="Main-to-Houndour" style="stroke:#AAAAAA;stroke-width:1.0;"/><polygon fill="none" points="908.751,272.922,915.9348,273.5485,919.2762,267.1582,912.0923,266.5317,908.751,272.922" style="stroke:#AAAAAA;stroke-width:1.0;"/></g><!--link Main to Oddish--><g id="link_Main_Oddish"><path codeLine="7" d="M1250.53,105.177 C1238.79,122.56 1224.19,144.731 1212,165 C1190.09,201.411 1172.5211,233.8726 1157.6111,262.3176 " fill="none" id="Main-to-Oddish" style="stroke:#AAAAAA;stroke-width:1.0;"/><polygon fill="none" points="1152.04,272.946,1158.3683,269.4888,1157.6111,262.3176,1151.2827,265.7748,1152.04,272.946" style="stroke:#AAAAAA;stroke-width:1.0;"/></g><!--link Main to Gloom--><g id="link_Main_Gloom"><path codeLine="8" d="M1301.33,105.242 C1316.2,122.102 1333.85,143.765 1347,165 C1368.7,200.046 1382.7362,232.7715 1393.6962,261.7595 " fill="none" id="Main-to-Gloom" style="stroke:#AAAAAA;stroke-width:1.0;"/><polygon fill="none" points="1397.94,272.984,1399.5596,265.9571,1393.6962,261.7595,1392.0766,268.7864,1397.94,272.984" style="stroke:#AAAAAA;stroke-width:1.0;"/></g><!--link Main to Totodile--><g id="link_Main_Totodile"><path codeLine="9" d="M1328.1,105.019 C1407.61,148.977 1541.7181,223.126 1621.2881,267.116 " fill="none" id="Main-to-Totodile" style="stroke:#AAAAAA;stroke-width:1.0;"/><polygon fill="none" points="1631.79,272.922,1628.4743,266.5184,1621.2881,267.116,1624.6037,273.5197,1631.79,272.922" style="stroke:#AAAAAA;stroke-width:1.0;"/></g><!--reverse link Pokemon to Gloom--><g id="link_Pokemon_Gloom"><path d="M1319.5961,224.9916 C1339.0261,242.1676 1352.29,253.884 1373.64,272.755 " fill="none" id="Pokemon-backto-Gloom" style="stroke:#181818;stroke-width:1.0;"/><polygon fill="none" points="1306.11,213.07,1315.6222,229.487,1323.57,220.4963,1306.11,213.07" style="stroke:#181818;stroke-width:1.0;"/></g><!--link Gloom to LightScreen--><g id="link_Gloom_LightScreen"><path codeLine="19" d="M1425.84,337.219 C1448.63,379.453 1483.7918,444.6212 1510.4718,494.0692 " fill="none" id="Gloom-to-LightScreen" style="stroke:#AAAAAA;stroke-width:1.0;"/><polygon fill="none" points="1516.17,504.63,1516.8412,497.4502,1510.4718,494.0692,1509.8006,501.249,1516.17,504.63" style="stroke:#AAAAAA;stroke-width:1.0;"/></g><!--link Gloom to HydroPump--><g id="link_Gloom_HydroPump"><path codeLine="20" d="M1340.47,337.059 C1319.18,345.794 1295.42,354.635 1273,361 C1181.48,386.984 1150.93,363.201 1062,397 C1024.3,411.327 1021.21,427.252 985,445 C965.428,454.592 957.337,450.218 939,462 C917.561,475.774 905.2969,486.5593 889.3959,504.0393 " fill="none" id="Gloom-to-HydroPump" style="stroke:#AAAAAA;stroke-width:1.0;"/><polygon fill="none" points="881.321,512.916,888.3173,511.1693,889.3959,504.0393,882.3995,505.786,881.321,512.916" style="stroke:#AAAAAA;stroke-width:1.0;"/></g><!--link Gloom to Charge--><g id="link_Gloom_Charge"><path codeLine="21" d="M1467.36,337.13 C1525.37,368.237 1616.75,417.682 1695,462 C1719.15,475.678 1734.8981,484.7675 1758.6081,498.7215 " fill="none" id="Gloom-to-Charge" style="stroke:#AAAAAA;stroke-width:1.0;"/><polygon fill="none" points="1768.95,504.808,1765.8079,498.3175,1758.6081,498.7215,1761.7502,505.2121,1768.95,504.808" style="stroke:#AAAAAA;stroke-width:1.0;"/></g><!--reverse link Pokemon to Houndour--><g id="link_Pokemon_Houndour"><path d="M1211.9768,193.3808 C1154.9268,197.0358 1077.4,205.413 999,230 C965.739,240.43 930.795,257.726 903.325,272.974 " fill="none" id="Pokemon-backto-Houndour" style="stroke:#181818;stroke-width:1.0;"/><polygon fill="none" points="1229.94,192.23,1211.5932,187.3931,1212.3604,199.3686,1229.94,192.23" style="stroke:#181818;stroke-width:1.0;"/></g><!--link Houndour to HydroPump--><g id="link_Houndour_HydroPump"><path codeLine="26" d="M851.62,337.219 C851.076,381.914 850.2221,452.1239 849.6271,500.9969 " fill="none" id="Houndour-to-HydroPump" style="stroke:#AAAAAA;stroke-width:1.0;"/><polygon fill="none" points="849.481,512.996,853.5537,507.0451,849.6271,500.9969,845.5543,506.9478,849.481,512.996" style="stroke:#AAAAAA;stroke-width:1.0;"/></g><!--link Houndour to ThunderShock--><g id="link_Houndour_ThunderShock"><path codeLine="27" d="M773.569,337.076 C751.548,345.327 727.477,353.906 705,361 C683.656,367.736 335.693,453.471 315,462 C286.766,473.637 267.7189,483.442 242.2669,498.747 " fill="none" id="Houndour-to-ThunderShock" style="stroke:#AAAAAA;stroke-width:1.0;"/><polygon fill="none" points="231.983,504.931,239.1863,505.267,242.2669,498.747,235.0636,498.411,231.983,504.931" style="stroke:#AAAAAA;stroke-width:1.0;"/></g><!--link Houndour to Endeavor--><g id="link_Houndour_Endeavor"><path codeLine="28" d="M777.362,337.174 C744.616,352.67 706.724,373.19 676,397 C635.93,428.052 605.5306,462.2125 579.4886,495.3445 " fill="none" id="Houndour-to-Endeavor" style="stroke:#AAAAAA;stroke-width:1.0;"/><polygon fill="none" points="572.073,504.779,578.9256,502.5336,579.4886,495.3445,572.636,497.5899,572.073,504.779" style="stroke:#AAAAAA;stroke-width:1.0;"/></g><!--link Houndour to Bite--><g id="link_Houndour_Bite"><path codeLine="29" d="M891.515,337.219 C945.053,379.518 1031.7042,447.9748 1094.2842,497.4178 " fill="none" id="Houndour-to-Bite" style="stroke:#AAAAAA;stroke-width:1.0;"/><polygon fill="none" points="1103.7,504.857,1101.4718,497.9988,1094.2842,497.4178,1096.5123,504.276,1103.7,504.857" style="stroke:#AAAAAA;stroke-width:1.0;"/></g><!--reverse link Pokemon to Oddish--><g id="link_Pokemon_Oddish"><path d="M1236.7467,224.2421 C1214.9667,241.4831 1199.08,254.064 1175.2,272.969 " fill="none" id="Pokemon-backto-Oddish" style="stroke:#181818;stroke-width:1.0;"/><polygon fill="none" points="1250.86,213.07,1233.0227,219.5376,1240.4707,228.9465,1250.86,213.07" style="stroke:#181818;stroke-width:1.0;"/></g><!--link Oddish to LightScreen--><g id="link_Oddish_LightScreen"><path codeLine="34" d="M1187.42,337.219 C1257.09,379.518 1371.8324,449.1865 1453.2724,498.6295 " fill="none" id="Oddish-to-LightScreen" style="stroke:#AAAAAA;stroke-width:1.0;"/><polygon fill="none" points="1463.53,504.857,1460.477,498.3241,1453.2724,498.6295,1456.3254,505.1625,1463.53,504.857" style="stroke:#AAAAAA;stroke-width:1.0;"/></g><!--link Oddish to HydroPump--><g id="link_Oddish_HydroPump"><path codeLine="35" d="M1073.79,337.001 C1044.75,352.934 1010.58,373.859 983,397 C941.774,431.586 909.7855,469.8914 884.5545,503.3544 " fill="none" id="Oddish-to-HydroPump" style="stroke:#AAAAAA;stroke-width:1.0;"/><polygon fill="none" points="877.33,512.936,884.1361,510.5534,884.5545,503.3544,877.7484,505.737,877.33,512.936" style="stroke:#AAAAAA;stroke-width:1.0;"/></g><!--reverse link Pokemon to Sealeo--><g id="link_Pokemon_Sealeo"><path d="M1348.3555,191.3401 C1466.0055,193.9691 1737.93,202.694 1831,230 C1863.11,239.422 1896.16,257.181 1921.63,272.941 " fill="none" id="Pokemon-backto-Sealeo" style="stroke:#181818;stroke-width:1.0;"/><polygon fill="none" points="1330.36,190.938,1348.2215,197.3386,1348.4895,185.3416,1330.36,190.938" style="stroke:#181818;stroke-width:1.0;"/></g><!--link Sealeo to DoubleEdge--><g id="link_Sealeo_DoubleEdge"><path codeLine="40" d="M2086.41,310.843 C2305.46,322.045 2784.78,357.356 3174,462 C3213.75,472.688 3244.8559,484.2696 3281.2259,500.1796 " fill="none" id="Sealeo-to-DoubleEdge" style="stroke:#AAAAAA;stroke-width:1.0;"/><polygon fill="none" points="3292.22,504.989,3288.3261,498.9196,3281.2259,500.1796,3285.1198,506.249,3292.22,504.989" style="stroke:#AAAAAA;stroke-width:1.0;"/></g><!--link Sealeo to Endeavor--><g id="link_Sealeo_Endeavor"><path codeLine="41" d="M1901.18,337.101 C1879.3,346.219 1854.51,355.27 1831,361 C1365.63,474.43 1223.12,347.554 758,462 C716.633,472.178 683.889,484.0107 646.318,500.2227 " fill="none" id="Sealeo-to-Endeavor" style="stroke:#AAAAAA;stroke-width:1.0;"/><polygon fill="none" points="635.3,504.977,642.3938,506.2725,646.318,500.2227,639.2242,498.9272,635.3,504.977" style="stroke:#AAAAAA;stroke-width:1.0;"/></g><!--link Sealeo to Substitute--><g id="link_Sealeo_Substitute"><path codeLine="42" d="M2037.51,337.095 C2133.42,379.385 2294.88,450.5855 2407.12,500.0765 " fill="none" id="Sealeo-to-Substitute" style="stroke:#AAAAAA;stroke-width:1.0;"/><polygon fill="none" points="2418.1,504.918,2414.2238,498.8373,2407.12,500.0765,2410.9962,506.1572,2418.1,504.918" style="stroke:#AAAAAA;stroke-width:1.0;"/></g><!--link Sealeo to TakeDown--><g id="link_Sealeo_TakeDown"><path codeLine="43" d="M2086.32,322.499 C2240.09,345.462 2514.68,392.254 2742,462 C2780.09,473.687 2809.6456,484.9496 2845.2356,500.2496 " fill="none" id="Sealeo-to-TakeDown" style="stroke:#AAAAAA;stroke-width:1.0;"/><polygon fill="none" points="2856.26,504.989,2852.3276,498.9445,2845.2356,500.2496,2849.168,506.2941,2856.26,504.989" style="stroke:#AAAAAA;stroke-width:1.0;"/></g><!--reverse link Pokemon to Skarmory--><g id="link_Pokemon_Skarmory"><path d="M1211.7645,191.359 C1090.6145,194.072 803.187,203.047 705,230 C670.697,239.417 634.991,257.176 607.36,272.937 " fill="none" id="Pokemon-backto-Skarmory" style="stroke:#181818;stroke-width:1.0;"/><polygon fill="none" points="1229.76,190.956,1211.6302,185.3605,1211.8988,197.3575,1229.76,190.956" style="stroke:#181818;stroke-width:1.0;"/></g><!--link Skarmory to HydroPump--><g id="link_Skarmory_HydroPump"><path codeLine="48" d="M600.935,337.143 C642.261,367.658 705.974,416.136 758,462 C776.051,477.913 786.6426,487.9623 802.5966,504.1423 " fill="none" id="Skarmory-to-HydroPump" style="stroke:#AAAAAA;stroke-width:1.0;"/><polygon fill="none" points="811.022,512.687,809.6576,505.6062,802.5966,504.1423,803.9611,511.2231,811.022,512.687" style="stroke:#AAAAAA;stroke-width:1.0;"/></g><!--link Skarmory to ThunderShock--><g id="link_Skarmory_ThunderShock"><path codeLine="49" d="M492.914,337.047 C459.219,353.768 417.758,375.365 382,397 C326.642,430.493 276.3764,465.7618 232.7514,497.8148 " fill="none" id="Skarmory-to-ThunderShock" style="stroke:#AAAAAA;stroke-width:1.0;"/><polygon fill="none" points="223.081,504.92,230.2846,504.5909,232.7514,497.8148,225.5478,498.1439,223.081,504.92" style="stroke:#AAAAAA;stroke-width:1.0;"/></g><!--link Skarmory to Endeavor--><g id="link_Skarmory_Endeavor"><path codeLine="50" d="M555.34,337.219 C551.742,379.453 546.3097,443.2253 542.0967,492.6733 " fill="none" id="Skarmory-to-Endeavor" style="stroke:#AAAAAA;stroke-width:1.0;"/><polygon fill="none" points="541.078,504.63,545.5729,498.9912,542.0967,492.6733,537.6018,498.3121,541.078,504.63" style="stroke:#AAAAAA;stroke-width:1.0;"/></g><!--reverse link Pokemon to Totodile--><g id="link_Pokemon_Totodile"><path d="M1348.4006,194.032 C1402.5606,198.054 1472.64,206.527 1545,230 C1577.31,240.48 1611.16,257.681 1637.81,272.862 " fill="none" id="Pokemon-backto-Totodile" style="stroke:#181818;stroke-width:1.0;"/><polygon fill="none" points="1330.45,192.699,1347.9562,200.0156,1348.8449,188.0485,1330.45,192.699" style="stroke:#181818;stroke-width:1.0;"/></g><!--link Totodile to LightScreen--><g id="link_Totodile_LightScreen"><path codeLine="55" d="M1669.51,337.219 C1644.49,379.453 1605.7557,444.8574 1576.4657,494.3054 " fill="none" id="Totodile-to-LightScreen" style="stroke:#AAAAAA;stroke-width:1.0;"/><polygon fill="none" points="1570.35,504.63,1576.8494,501.5062,1576.4657,494.3054,1569.9663,497.4291,1570.35,504.63" style="stroke:#AAAAAA;stroke-width:1.0;"/></g><!--link Totodile to HydroPump--><g id="link_Totodile_HydroPump"><path codeLine="56" d="M1615.45,337.114 C1593.16,345.799 1568.34,354.599 1545,361 C1329.8,420.011 1270.29,409.441 1050,445 C1000.73,452.953 983.495,439.394 939,462 C915.491,473.944 902.2212,485.2457 886.3702,503.6537 " fill="none" id="Totodile-to-HydroPump" style="stroke:#AAAAAA;stroke-width:1.0;"/><polygon fill="none" points="878.54,512.747,885.4862,510.8104,886.3702,503.6537,879.424,505.5903,878.54,512.747" style="stroke:#AAAAAA;stroke-width:1.0;"/></g><!--link Totodile to Charge--><g id="link_Totodile_Charge"><path codeLine="57" d="M1704.42,337.023 C1719.9,365.634 1744.21,408.995 1768,445 C1781.34,465.178 1789.8315,477.0857 1803.9115,495.4617 " fill="none" id="Totodile-to-Charge" style="stroke:#AAAAAA;stroke-width:1.0;"/><polygon fill="none" points="1811.21,504.987,1810.7359,497.7915,1803.9115,495.4617,1804.3856,502.6572,1811.21,504.987" style="stroke:#AAAAAA;stroke-width:1.0;"/></g><!--link Totodile to Meditate--><g id="link_Totodile_Meditate"><path codeLine="58" d="M1768.07,337.094 C1788.56,344.968 1810.57,353.358 1831,361 C1874.85,377.404 1888.38,375.558 1930,397 C1989.49,427.646 2042.1778,464.2541 2086.2578,497.5801 " fill="none" id="Totodile-to-Meditate" style="stroke:#AAAAAA;stroke-width:1.0;"/><polygon fill="none" points="2095.83,504.817,2093.4562,498.0078,2086.2578,497.5801,2088.6316,504.3893,2095.83,504.817" style="stroke:#AAAAAA;stroke-width:1.0;"/></g><!--reverse link PhysicalMove to Bite--><g id="link_PhysicalMove_Bite"><path d="M1767.4206,421.7455 C1677.6106,422.5015 1527.06,428.668 1388,462 C1345.99,472.07 1301.52,488.687 1263.38,504.952 " fill="none" id="PhysicalMove-backto-Bite" style="stroke:#181818;stroke-width:1.0;"/><polygon fill="none" points="1785.42,421.594,1767.3701,415.7457,1767.4711,427.7453,1785.42,421.594" style="stroke:#181818;stroke-width:1.0;"/></g><!--reverse link PhysicalMove to Charge--><g id="link_PhysicalMove_Charge"><path d="M1849,463.03 C1849,479.567 1849,484.444 1849,504.843 " fill="none" id="PhysicalMove-backto-Charge" style="stroke:#181818;stroke-width:1.0;"/><polygon fill="none" points="1849,445.03,1843,463.03,1855,463.03,1849,445.03" style="stroke:#181818;stroke-width:1.0;"/></g><!--reverse link PhysicalMove to DoubleEdge--><g id="link_PhysicalMove_DoubleEdge"><path d="M1930.8992,422.7312 C2178.6592,425.0882 3050.3,435.184 3174,462 C3216.02,471.109 3260.18,488.135 3297.55,504.983 " fill="none" id="PhysicalMove-backto-DoubleEdge" style="stroke:#181818;stroke-width:1.0;"/><polygon fill="none" points="1912.9,422.56,1930.8421,428.731,1930.9563,416.7315,1912.9,422.56" style="stroke:#181818;stroke-width:1.0;"/></g><!--reverse link PhysicalMove to Endeavor--><g id="link_PhysicalMove_Endeavor"><path d="M1767.1226,423.3427 C1548.7826,427.0637 858.102,440.386 758,462 C715.346,471.21 670.409,488.144 632.276,504.894 " fill="none" id="PhysicalMove-backto-Endeavor" style="stroke:#181818;stroke-width:1.0;"/><polygon fill="none" points="1785.12,423.036,1767.0204,417.3436,1767.2249,429.3418,1785.12,423.036" style="stroke:#181818;stroke-width:1.0;"/></g><!--reverse link PhysicalMove to HydroPump--><g id="link_PhysicalMove_HydroPump"><path d="M1767.2856,423.9783 C1566.7556,428.9633 977.603,444.944 939,462 C914.475,472.836 893.028,493.647 877.227,512.582 " fill="none" id="PhysicalMove-backto-HydroPump" style="stroke:#181818;stroke-width:1.0;"/><polygon fill="none" points="1785.28,423.531,1767.1365,417.9802,1767.4347,429.9765,1785.28,423.531" style="stroke:#181818;stroke-width:1.0;"/></g><!--reverse link PhysicalMove to LightScreen--><g id="link_PhysicalMove_LightScreen"><path d="M1767.5935,438.4245 C1739.3735,444.9555 1723.69,450.066 1695,462 C1667.07,473.614 1638.11,489.599 1612.99,504.905 " fill="none" id="PhysicalMove-backto-LightScreen" style="stroke:#181818;stroke-width:1.0;"/><polygon fill="none" points="1785.13,434.366,1766.2407,432.579,1768.9463,444.27,1785.13,434.366" style="stroke:#181818;stroke-width:1.0;"/></g><!--reverse link PhysicalMove to Meditate--><g id="link_PhysicalMove_Meditate"><path d="M1930.4065,438.4245 C1958.6265,444.9555 1974.31,450.066 2003,462 C2030.93,473.614 2059.89,489.599 2085.01,504.905 " fill="none" id="PhysicalMove-backto-Meditate" style="stroke:#181818;stroke-width:1.0;"/><polygon fill="none" points="1912.87,434.366,1929.0537,444.27,1931.7593,432.579,1912.87,434.366" style="stroke:#181818;stroke-width:1.0;"/></g><!--reverse link PhysicalMove to Substitute--><g id="link_PhysicalMove_Substitute"><path d="M1930.6398,421.4393 C2020.5198,421.9003 2171.16,427.779 2310,462 C2350.66,472.022 2393.57,488.63 2430.33,504.901 " fill="none" id="PhysicalMove-backto-Substitute" style="stroke:#181818;stroke-width:1.0;"/><polygon fill="none" points="1912.64,421.347,1930.609,427.4392,1930.6705,415.4394,1912.64,421.347" style="stroke:#181818;stroke-width:1.0;"/></g><!--reverse link PhysicalMove to TakeDown--><g id="link_PhysicalMove_TakeDown"><path d="M1930.56,421.9942 C2107.29,422.3402 2583.86,426.509 2742,462 C2783.66,471.348 2827.48,488.253 2864.68,504.942 " fill="none" id="PhysicalMove-backto-TakeDown" style="stroke:#181818;stroke-width:1.0;"/><polygon fill="none" points="1912.56,421.959,1930.5482,427.9942,1930.5717,415.9943,1912.56,421.959" style="stroke:#181818;stroke-width:1.0;"/></g><!--reverse link SpecialMove to ThunderShock--><g id="link_SpecialMove_ThunderShock"><path d="M160,463.03 C160,479.567 160,484.444 160,504.843 " fill="none" id="SpecialMove-backto-ThunderShock" style="stroke:#181818;stroke-width:1.0;"/><polygon fill="none" points="160,445.03,154,463.03,166,463.03,160,445.03" style="stroke:#181818;stroke-width:1.0;"/></g><!--SRC=[jLNBRjim4BphAmZaug2s_y6fZUPG8m7ade8SQ79j4QP8GQJS2aN-lNfHOYmoeehaOi3QdPtPuN99E5OAxJ4Jw6_qJMci6K5NoIXAgs-BMETCd5zU4SxFwZvwYvhCrOhAt-BbRhFPlAuaIijCNY2LGgrZm1nabsKbtMHTS9xAl1pdlKjxb8MWiiYdoZrHobGoKUm7bpATad-GMbB68Of8uqkX6LVhN_MlPSzHIWvO899WGM1HIJnowFxL7XdqBJk2Fne4LUYv_LoNR0ATpKZW59Q82OquN87NjKOrHZQayWfg_PET4nsJ741yZ1aWZoNDvNEHPi4atvDg3C3HdZafLuSc5jPaNsc6vW7Z1XsIAWvvd4XocUIoSBiAXQyodw7lWMcNF-s4kjnf8s7UT5NcJO03vB9phBczoYxDRIHCSrV5SpBRvkhiQ3LK3apugJWG0o0kZaepNUWP90TyWMqLSVdIBI-dCrqiq1jJQSQi3vXvi-xaShawRjWiHLV39XRMS5_9hTqpmKxKb4yJLDqcSmBSY3rGLgr_wtOFDtvm9YaL8vZlgr1jJnrSt4TtpOEAiuoNJrcsnIa-myAuIE6qHDqRGfjG1UZifA18pevr3VjPiNlmShVXz-mnyDFkT0AYLS-V1T8DTzLBEQICQM-wplwlPpEcNWaceHPW7cRCoGDMSAC0Qxr4rY44AkYdpIkXprW4bhJctblKolcy8pKpxMKr2Pz7EInZB-cGybLJPBQxLu99-381rfRkHSGP46Pfi7D6IoJ0_nhqzWy0]--></g></svg>